<?xml version="1.0" encoding="iso-8859-1"?>
<!-- Uploaded to: SVG Repo, www.svgrepo.com, Generator: SVG Repo Mixer Tools -->
<svg height="800px" width="800px" version="1.1" id="Layer_1" xmlns="http://www.w3.org/2000/svg" xmlns:xlink="http://www.w3.org/1999/xlink" 
	 viewBox="0 0 512 512" xml:space="preserve">
<circle style="fill:#006C70;" cx="256" cy="256" r="256"/>
<path style="fill:#023737;" d="M315.625,505.003c82.484-19.678,149.466-79.269,179.417-157.234L250.22,102.948l-86.94,76.255
	l-42.386,41.446l81.72,81.72l-34.113,55.51L315.625,505.003z"/>
<path style="fill:#FFFFFF;" d="M243.933,239.101c-1.427,0-2.586-1.158-2.586-2.586V107.024c0-1.427,1.158-2.586,2.586-2.586
	s2.586,1.158,2.586,2.586v129.491C246.519,237.942,245.36,239.101,243.933,239.101z"/>
<path style="fill:#FFC61B;" d="M263.632,249.446c-0.305-0.936-1.114-1.617-2.088-1.76l-10.568-1.536l-4.725-9.575
	c-0.434-0.883-1.333-1.441-2.319-1.441s-1.884,0.559-2.319,1.441l-4.725,9.575l-10.568,1.536c-0.972,0.141-1.783,0.824-2.088,1.76
	c-0.303,0.936-0.05,1.965,0.655,2.651l7.647,7.452l-1.807,10.523c-0.167,0.971,0.233,1.951,1.029,2.531
	c0.798,0.579,1.853,0.653,2.724,0.197l9.45-4.97l9.45,4.97c0.379,0.198,0.791,0.297,1.203,0.297c0.536,0,1.069-0.167,1.52-0.493
	c0.796-0.579,1.195-1.558,1.029-2.531l-1.807-10.523l7.647-7.452C263.682,251.411,263.935,250.382,263.632,249.446z"/>
<path style="fill:#F4A200;" d="M263.632,249.446c-0.305-0.936-1.114-1.617-2.088-1.76l-10.568-1.536l-4.725-9.575
	c-0.434-0.883-1.333-1.441-2.319-1.441c-0.197,0-0.386,0.038-0.574,0.081v32.916l0.574-0.302l9.45,4.97
	c0.379,0.198,0.791,0.297,1.203,0.297c0.536,0,1.069-0.167,1.52-0.493c0.796-0.579,1.195-1.558,1.029-2.531l-1.807-10.523
	l7.647-7.452C263.682,251.411,263.935,250.382,263.632,249.446z"/>
<path style="fill:#FFE98F;" d="M304.674,350.687c-78.35-28.308-118.917-114.772-90.608-193.124
	c6.839-18.925,17.077-35.638,29.768-49.717c-50.502,7.932-95.251,42.405-113.85,93.879
	c-27.176,75.216,11.767,158.222,86.983,185.397c51.474,18.597,106.587,6.218,144.968-27.551
	C342.999,360.334,323.601,357.526,304.674,350.687z"/>
<path style="fill:#FFDA44;" d="M304.674,350.687c-33.987-12.279-60.859-35.507-78.088-64.264l-72.861,55.767
	c16.044,19.809,37.519,35.64,63.243,44.934c51.474,18.598,106.587,6.218,144.968-27.551
	C342.999,360.334,323.601,357.526,304.674,350.687z"/>
<path style="fill:#FF5023;" d="M217.593,157.443c7.496-20.744,18.718-39.062,32.627-54.493
	c-55.355,8.695-104.401,46.478-124.787,102.898c-1.774,4.91-3.272,9.85-4.539,14.805l87.254,4.848
	C206.52,203.074,209.46,179.953,217.593,157.443z"/>
<g>
	<path style="fill:#59595B;" d="M180.674,285.477c-6.797,0-12.491-5.151-12.857-11.793c-0.078-1.426,1.015-2.644,2.441-2.724
		c1.46-0.071,2.644,1.014,2.724,2.441c0.221,4.034,3.951,7.113,8.147,6.89c4.272-0.234,7.566-3.705,7.344-7.739
		c-0.078-1.426,1.015-2.644,2.441-2.724c1.464-0.047,2.644,1.015,2.724,2.441c0.378,6.88-5.108,12.797-12.226,13.186
		C181.165,285.47,180.917,285.477,180.674,285.477z"/>
	<path style="fill:#59595B;" d="M227.109,339.12c-2.712,0-5.57-0.197-8.576-0.641c-1.412-0.209-2.389-1.524-2.179-2.936
		c0.207-1.414,1.533-2.403,2.936-2.179c23.366,3.437,37.255-9.776,37.393-9.909c1.024-0.996,2.658-0.977,3.656,0.047
		c0.996,1.024,0.974,2.66-0.047,3.656C259.732,327.708,247.748,339.12,227.109,339.12z"/>
</g>
</svg>